<svg xmlns="http://www.w3.org/2000/svg" xmlns:xlink="http://www.w3.org/1999/xlink" version="1.1" x="0px" y="0px" viewBox="0 0 64 80" style="enable-background:new 0 0 64 64;" xml:space="preserve"><g><path d="M34.7,22c-0.7-0.5-1.5-0.9-2.3-1.2c-0.6-0.3-1.2-0.6-1.8-0.9c-0.7-0.4-0.9-1.1-0.8-1.9c0.1-0.8,0.6-1.3,1.4-1.5   c0.7-0.3,1.5-0.2,2.2-0.1c0.6,0.1,1.2,0.3,1.8,0.7c0.2-0.5,0.4-0.9,0.6-1.4c0,0,0-0.2-0.1-0.2c-0.4-0.2-0.8-0.4-1.2-0.5   c-0.5-0.1-1.1-0.2-1.6-0.3c0-0.7,0-0.7,0-1.5c-0.5,0-1,0-1.4,0c0,0.8,0,0.8,0,1.6c-0.1,0-0.2,0.1-0.3,0.1c-0.7,0.2-1.3,0.4-1.9,0.9   c-1.7,1.3-1.9,4-0.2,5.4c0.7,0.6,1.5,1,2.4,1.3c0.7,0.3,1.4,0.6,2,1c1.5,1.2,1.2,3.2-0.5,3.9c-0.4,0.2-0.8,0.2-1.2,0.3   c-1.1,0-2.2-0.3-3.2-0.8c-0.1-0.1-0.2-0.1-0.3-0.2c-0.2,0.5-0.3,0.9-0.5,1.3c-0.1,0.2,0,0.2,0.1,0.3c0.6,0.3,1.2,0.6,1.8,0.7   c0.5,0.1,1,0.2,1.5,0.2c0,0.7,0,0.8,0,1.5c0.5,0,1,0,1.5,0c0-0.8,0-0.9,0-1.6c0.4-0.1,0.8-0.2,1.2-0.4c1.4-0.6,2.2-1.6,2.4-3   C36.5,24.2,36,23,34.7,22z"/><g><rect x="20.8" y="36.8" width="3.8" height="3.5"/><rect x="27.9" y="36.8" width="15.3" height="3.5"/><rect x="20.8" y="45" width="3.8" height="3.5"/><rect x="27.9" y="45" width="15.3" height="3.5"/></g><path d="M45.7,1.7H32H32H18.3c-2.3,0-4.1,1.8-4.1,4.1v52.5c0,2.3,1.8,4.1,4.1,4.1H32H32h13.7c2.3,0,4.1-1.8,4.1-4.1V5.8   C49.8,3.5,48,1.7,45.7,1.7z M46.6,54.7H32H32H17.4V9.3H32H32h14.5V54.7z"/></g><text x="0" y="79" fill="#000000" font-size="5px" font-weight="bold" font-family="'Helvetica Neue', Helvetica, Arial-Unicode, Arial, Sans-serif">Created by Delwar Hossain</text><text x="0" y="84" fill="#000000" font-size="5px" font-weight="bold" font-family="'Helvetica Neue', Helvetica, Arial-Unicode, Arial, Sans-serif">from the Noun Project</text></svg>