<svg xmlns="http://www.w3.org/2000/svg" xmlns:xlink="http://www.w3.org/1999/xlink" version="1.1" x="0px" y="0px" viewBox="0 0 1540 1925" style="enable-background:new 0 0 1540 1540;" xml:space="preserve"><g><g><g><path d="M1330.4,207.8v803c-13.5,2-25.6,7.9-35.3,16.7c-8.1-28.1-34.1-48.7-64.8-48.7c-19.5,0-37.1,8.3-49.4,21.6     c-11.1-22.1-33.9-37.3-60.3-37.3c-16,0-30.7,5.6-42.3,15V805.8c0-18.7-7.5-36-21-48.9s-31.3-19.4-50-18.4     c-35.8,1.9-63.8,31.8-63.8,68.2v209.9H173.8V207.8H1330.4z M1197.4,612.1c0-6.9-5.6-12.5-12.5-12.5H538.1     c-6.9,0-12.5,5.6-12.5,12.5s5.6,12.5,12.5,12.5h646.8C1191.8,624.7,1197.4,619.1,1197.4,612.1z M1159.8,331.3     c0-6.9-5.6-12.5-12.5-12.5H539.7c-6.9,0-12.5,5.6-12.5,12.5s5.6,12.5,12.5,12.5h607.6C1154.2,343.8,1159.8,338.2,1159.8,331.3z      M1128.5,818.3c6.9,0,12.5-5.6,12.5-12.5c0-71.7-58.4-130.1-130.1-130.1s-130.1,58.4-130.1,130.1c0,6.9,5.6,12.5,12.5,12.5     s12.5-5.6,12.5-12.5c0-57.9,47.1-105,105-105s105,47.1,105,105C1115.9,812.7,1121.5,818.3,1128.5,818.3z M1107.6,471.7     c0-6.9-5.6-12.5-12.5-12.5H539.7c-6.9,0-12.5,5.6-12.5,12.5s5.6,12.5,12.5,12.5H1095C1101.9,484.2,1107.6,478.6,1107.6,471.7z      M785.7,893c0-6.9-5.6-12.5-12.5-12.5h-505c-6.9,0-12.5,5.6-12.5,12.5s5.6,12.5,12.5,12.5h504.9     C780.1,905.6,785.7,899.9,785.7,893z M735.5,752.6c0-6.9-5.6-12.5-12.5-12.5H268.2c-6.9,0-12.5,5.6-12.5,12.5s5.6,12.5,12.5,12.5     H723C729.9,765.1,735.5,759.5,735.5,752.6z M461,540.7c0-15.1-3.1-27.7-9.2-37.6c-6.2-10-14.9-17.9-25.9-23.7     c-12-6.3-31.1-12.6-56.9-18.7c-28.9-6.8-47-13.6-55.4-20.6c-8.1-6.8-12.2-15.3-12.2-25.2c0-10.9,4.5-19.6,13.4-26.1     c11-8,25.9-12,44.3-12c18.1,0,32.2,3.9,41.9,11.7c5.6,4.5,10.2,10.5,13.6,17.8c2.7,5.9,8.7,9.4,15.2,9.2l1.3-0.1     c5.6-0.3,10.6-3.3,13.4-8.2c2.7-4.8,2.8-10.6,0.2-15.4c-3.7-6.8-8.7-13-14.9-18.3c-12.2-10.6-30-17-52.9-19.1v-15.3     c0-6.9-5.6-12.5-12.5-12.5s-12.5,5.6-12.5,12.5v14.7c-16,0.7-29.9,3.5-41.5,8.4c-12.7,5.4-22.5,13.3-29.1,23.5s-10,21.3-10,32.9     c0,18.4,7,33.7,21.4,46.6c10.5,9.4,29.8,17.6,57.5,24.5c23.6,5.9,38.3,9.9,45.2,12.2c11.6,4.1,19.6,9.1,24.8,15.2     c5.5,6.6,8.3,14.6,8.3,23.7c0,13.5-5.9,25.3-17.6,35c-11.1,9.2-27,13.9-47.4,13.9c-19.5,0-35.4-5.2-47.3-15.4     c-7.4-6.3-13.3-14.8-17.5-25.2c-2.4-5.9-8.2-9.8-14.8-9.8c-0.5,0-1.1,0-1.6,0.1c-5.1,0.5-9.6,3.3-12.3,7.7     c-2.6,4.3-3.1,9.4-1.3,14c5,12.7,12.4,23.3,21.9,31.5c14.4,12.4,34.9,19.4,61.2,20.9v14.9c0,6.9,5.6,12.5,12.5,12.5     s12.5-5.6,12.5-12.5v-15c16-1,29.8-4,41.1-8.7c13.7-5.7,24.4-14.5,31.8-26.1C457.2,566.9,461,554.2,461,540.7z"/><path d="M1535,66.9v1087.8c0,16.1-13.1,29.3-29.3,29.3h-98.2v-106.5c0-18.7-7.5-36-21-48.9c-8.9-8.4-19.5-14.1-31-16.8V195.2     c0-6.9-5.6-12.5-12.5-12.5H161.3c-6.9,0-12.5,5.6-12.5,12.5V1029c0,6.9,5.6,12.5,12.5,12.5h782.2v96.8     c-8.5-10.7-17.4-20.3-26.7-28.7c-30-27.1-77.1-42.8-109.6-13.3c-17.3,15.7-23.5,36.5-18.3,61.8c1.8,8.8,4.8,17.5,8.4,25.9h-763     c-16.1,0-29.3-13.1-29.3-29.3V66.9c0-16.1,13.1-29.3,29.3-29.3h1471.5C1521.9,37.7,1535,50.8,1535,66.9z M1457.8,746.4V475.3     c0-6.9-5.6-12.5-12.5-12.5s-12.5,5.6-12.5,12.5v271.1c0,6.9,5.6,12.5,12.5,12.5C1452.2,759,1457.8,753.3,1457.8,746.4z"/><path d="M828,1190.4c-15.5-30.7-24.2-57.3-4.1-75.5c24.1-21.9,60.3-0.8,76,13.4c12.2,11,23.8,24.5,34.6,40.2     c3.8,5.5,7.3,11.2,10.4,16.8c5.8,11.6,23.6,6.6,23.6-5.9V1029V806.6c0-23,17.6-42,40.1-43.1c11.7-0.6,22.9,3.5,31.4,11.6     s13.2,19,13.2,30.7V1029v1.4v87.3c0,6.9,5.6,12.5,12.5,12.5s12.5-5.6,12.5-12.5v-87.3c0-23.3,19-42.3,42.3-42.3     c22.9,0,41.6,18.2,42.3,40.9c0,0.1,0,0.2,0,0.3c0,0.4,0,0.7,0,1.1v15.7v61.1c0,6.9,5.6,12.5,12.5,12.5s12.5-5.6,12.5-12.5v-61.1     c0-23.3,19-42.3,42.3-42.3s42.3,19,42.3,42.3v32.2v9.1v17.8c0,6.9,5.6,12.5,12.5,12.5s12.5-5.6,12.5-12.5v-17.8v-9.1     c0-23,17.6-42,40.1-43.1c11.8-0.6,22.9,3.5,31.4,11.6s13.2,19,13.2,30.7l0.1,242c0.4,41.4,0.7,84.2-21.8,118.1     c-23,34.4-59.7,58.2-98.1,63.6c-4.3,0.6-8.7,1-13,1.1l-184.4-1c-35.6-2.3-69.4-20-95.2-50c-20.7-24-35.5-54.2-49.9-83.4     L828,1190.4z"/></g></g></g><text x="0" y="1555" fill="#000000" font-size="5px" font-weight="bold" font-family="'Helvetica Neue', Helvetica, Arial-Unicode, Arial, Sans-serif">Created by SAM Designs</text><text x="0" y="1560" fill="#000000" font-size="5px" font-weight="bold" font-family="'Helvetica Neue', Helvetica, Arial-Unicode, Arial, Sans-serif">from the Noun Project</text></svg>