<svg xmlns="http://www.w3.org/2000/svg" xmlns:xlink="http://www.w3.org/1999/xlink" version="1.1" x="0px" y="0px" viewBox="0 0 64 80" style="enable-background:new 0 0 64 64;" xml:space="preserve"><path d="M52.8,53h2.4c1-4.7,1-9.3,0-14h-2.4C51.8,43.7,51.8,48.4,52.8,53z"/><path d="M40.8,53h2.4c1-4.7,1-9.3,0-14h-2.4C39.8,43.7,39.8,48.4,40.8,53z"/><path d="M23,59C23,59,23,59,23,59v2h38v-2H23z"/><rect x="25" y="55" width="34" height="2"/><path d="M28.8,53h2.4c1-4.7,1-9.3,0-14h-2.4C27.8,43.7,27.8,48.4,28.8,53z"/><rect x="39" y="35" width="6" height="2"/><path d="M42,29c-2.6,0-5-0.9-7-2.5L22.2,33h39.8l-13-6.5C47,28.1,44.6,29,42,29z"/><rect x="51" y="35" width="6" height="2"/><rect x="27" y="35" width="6" height="2"/><path d="M33.1,16.9c2.2,0,3.9,1.8,3.9,4c0,1.3-0.6,2.5-1.6,3.2c1.7,1.8,4.1,2.9,6.6,2.9c5,0,9-4,9-9s-4-9-9-9  C37.5,9,33.6,12.5,33.1,16.9z M45.7,21.4c1.8-2.1,1.2-4.6,1-5c-0.2-0.5,0.1-1.1,0.6-1.3c0.5-0.2,1.1,0.1,1.3,0.6  c0.2,0.7,0.9,4.3-1.4,7c-0.2,0.3-0.7,0.6-1.4,0.1C45.4,22.4,45.4,21.8,45.7,21.4z M42,19c-1.7,0-3-1.3-3-3c0-1.3,0.8-2.4,2-2.8V12  c0-0.5,0.5-1,1-1s1,0.5,1,1v1.2c1.2,0.4,2,1.5,2,2.8c0,0.5-0.5,1-1,1s-1-0.5-1-1c0-0.5-0.5-1-1-1s-1,0.5-1,1c0,0.5,0.5,1,1,1  c1.7,0,3,1.3,3,3c0,1.3-0.8,2.4-2,2.8V24c0,0.5-0.5,1-1,1s-1-0.5-1-1v-1.2c-1.2-0.4-2-1.5-2-2.8c0-0.5,0.5-1,1-1s1,0.5,1,1  s0.5,1,1,1s1-0.5,1-1S42.5,19,42,19z"/><rect x="3" y="3" width="4" height="22"/><path d="M35,20.9c0-1.1-0.9-2-2-2h-5.6c-1.2,0-2.2-0.8-2.4-2c-0.2-1.2,0.5-2.2,1.6-2.6l6.2-2.2c1.4-2.2,3.6-3.9,6.2-4.6l-7.3-4  c-1.2-0.5-2.6-0.6-3.8-0.4L9,7v14c2.3-0.1,5.4,1.3,5.4,1.3c1.2,0.4,2.4,0.6,3.6,0.6h15C34.1,22.9,35,22.1,35,20.9z M25.8,5.5  c0,0,4-1.1,6.5,0.1c0.5,0.2,0.8,0.8,0.6,1.3c-0.4,0.9-1.2,0.6-1.3,0.6c-1.9-0.9-5.5-0.1-5.5-0.1c-0.5,0.1-1.1-0.3-1.1-0.8  C24.9,6.1,25.3,5.6,25.8,5.5z M22.2,8.4c0,0-2.1,0.4-2.2,0.4c-0.5,0-0.9-0.3-1-0.8c-0.1-0.5,0.2-1.1,0.8-1.2l2-0.4  c0.5-0.1,1.1,0.2,1.2,0.8C23.1,7.8,22.7,8.3,22.2,8.4z"/><text x="0" y="79" fill="#000000" font-size="5px" font-weight="bold" font-family="'Helvetica Neue', Helvetica, Arial-Unicode, Arial, Sans-serif">Created by HAMEL KHALED</text><text x="0" y="84" fill="#000000" font-size="5px" font-weight="bold" font-family="'Helvetica Neue', Helvetica, Arial-Unicode, Arial, Sans-serif">from the Noun Project</text></svg>