<svg xmlns="http://www.w3.org/2000/svg" x="0px" y="0px" viewBox="0 0 100 125"><path d="m30.999851 962.36218c-8.800968 0-15.999908 7.19898-15.999908 16s7.198937 16 15.999908 16c8.800973 0 15.999909-7.19898 15.999909-16s-7.198939-16-15.999909-16zm0 6c5.558353 0 9.999943 4.44162 9.999943 10s-4.441593 10-9.999943 10c-5.558348 0-9.999942-4.44162-9.999942-10s4.441591-10 9.999942-10zm22.999869 2c-1.570744.00016-2.999826 1.42925-2.999983 3v30.09372c-2.330532-3.1497-5.216559-5.75872-8.468701-7.68747-1.018181-.60493-2.399565-.52747-3.343731.1875-2.123196 1.61456-4.653949 2.3021-8.187454 2.40625-3.533504-.10415-6.064254-.79171-8.187453-2.40625-.560037-.41932-1.270249-.63351-1.968738-.59375-.482075.0222-.958262.16289-1.374993.40625-8.477686 5.02777-14.5334007 14.62697-14.468667 26.59377.013125 2.4262-.00111 5.8533 0 8 .0001571 1.5707 1.4292384 2.9998 2.9999829 3h42.9997541v6c.000157 1.5707 1.429239 2.9998 2.999983 3h37.999783c1.570744-.0002 2.999826-1.4293 2.999983-3 .000001-22.0967 0-44.23823 0-66.31252-.153429-1.46384-1.528152-2.69537-2.999983-2.6875zm2.999983 6h31.999817v60.00002h-31.999817c-.0022-19.9923 0-39.84425 0-60.00002zm5.718717 3c-1.570875.0735-2.933237 1.56976-2.859602 3.14064.07363 1.57088 1.569988 2.93312 3.140851 2.85936h19.999885c1.584929.0224 3.042709-1.4149 3.042709-3s-1.45778-3.02241-3.042709-3c-6.75063 0-13.551866 0-20.281134 0zm0 10c-1.570875.0735-2.933237 1.56976-2.859602 3.14064.07363 1.57088 1.569988 2.93312 3.140851 2.85936h19.999885c1.584929.0224 3.042709-1.4149 3.042709-3s-1.45778-3.02241-3.042709-3c-6.75063 0-13.551866 0-20.281134 0zm0 10c-1.570875.0735-2.933237 1.56972-2.859602 3.14062.07363 1.5709 1.569988 2.9331 3.140851 2.8594h19.999885c1.584929.022 3.042709-1.4149 3.042709-3s-1.45778-3.02243-3.042709-3.00002c-6.75063 0-13.551866 0-20.281134 0zm-41.531012 2.59372c2.940072 1.611 6.22307 2.3148 9.718694 2.4063h.187499c3.495624-.091 6.778617-.7953 9.718694-2.4063 5.960783 4.1515 10.237408 11.1382 10.187442 20.375-.0084 1.5534-.0028 3.2919 0 5.0313h-39.999771c.0028-1.7394.0084-3.4779 0-5.0313-.04997-9.2368 4.226666-16.2236 10.187442-20.375zm41.531012 6.4063c-1.570875.073-2.933237 1.5697-2.859602 3.1406.07363 1.5709 1.569988 2.9331 3.140851 2.8594h19.999885c1.584929.022 3.042709-1.4149 3.042709-3s-1.45778-3.0224-3.042709-3c-6.75063 0-13.551866 0-20.281134 0zm0 9c-1.570875.073-2.933237 1.5697-2.859602 3.1406.07363 1.5709 1.569988 2.9331 3.140851 2.8594h19.999885c1.584929.022 3.042709-1.4149 3.042709-3s-1.45778-3.0224-3.042709-3c-6.75063 0-13.551866 0-20.281134 0zm0 10c-1.570875.073-2.933237 1.5697-2.859602 3.1406.07363 1.5709 1.569988 2.9331 3.140851 2.8594h19.999885c1.584929.022 3.042709-1.4149 3.042709-3s-1.45778-3.0224-3.042709-3c-6.75063 0-13.551866 0-20.281134 0z" transform="translate(0 -952.36218)"/><text x="0" y="115" fill="#000000" font-size="5px" font-weight="bold" font-family="'Helvetica Neue', Helvetica, Arial-Unicode, Arial, Sans-serif">Created by nauraicon</text><text x="0" y="120" fill="#000000" font-size="5px" font-weight="bold" font-family="'Helvetica Neue', Helvetica, Arial-Unicode, Arial, Sans-serif">from the Noun Project</text></svg>