<svg xmlns="http://www.w3.org/2000/svg" data-name="Layer 1" viewBox="0 0 96 120" x="0px" y="0px"><title>Artboard 146</title><path d="M87,2H9A7.00818,7.00818,0,0,0,2,9V59a7.00818,7.00818,0,0,0,7,7H87a7.00818,7.00818,0,0,0,7-7V9A7.00818,7.00818,0,0,0,87,2ZM30,36H18V32H30Zm26.93555,1.84033c-.38806,3.165-3.82746,5.3794-6.93555,5.90766V47H46V43.56415a11.485,11.485,0,0,1-6.6709-4.86835l3.3418-2.19922a6.97882,6.97882,0,0,0,6.55762,3.32813c1.76562-.26416,3.61621-1.48877,3.73632-2.47168.17871-1.45166-.15332-2.05225-2.46679-2.75-1.26172-.38086-2.32617-.6543-3.26465-.896-2.7461-.70605-4.73047-1.21631-6.294-3.33789a5.99512,5.99512,0,0,1-1.0664-4.77588,6.78651,6.78651,0,0,1,3.19336-4.43359A7.49813,7.49813,0,0,1,46,20.20551V17h4v3.48291c.01727.00446.03448.00671.05176.01123a10.68046,10.68046,0,0,1,6.63867,4.89893L53.21,27.36279a6.67812,6.67812,0,0,0-4.17285-3,5.4725,5.4725,0,0,0-3.90527.22217,2.77771,2.77771,0,0,0-1.335,1.78955,2.00619,2.00619,0,0,0,.36328,1.62207c.6875.93311,1.46777,1.16748,4.06933,1.83643.97656.25146,2.083.53613,3.42285.93994C53.11914,31.21533,57.584,32.56152,56.93555,37.84033ZM78,36H66V32H78Z"/><path d="M50,87.071V72H46V87.071l-4.56543-4.69989L38.56543,85.1582l8,8.23535a2,2,0,0,0,2.86914,0l8-8.23535-2.86914-2.78711Z"/><path d="M80,87.071V72H76V87.071l-4.56543-4.69989L68.56543,85.1582l8,8.23535a2,2,0,0,0,2.86914,0l8-8.23535-2.86914-2.78711Z"/><path d="M20,87.071V72H16V87.071l-4.56543-4.69989L8.56543,85.1582l8,8.23535a2,2,0,0,0,2.86914,0l8-8.23535-2.86914-2.78711Z"/><text x="0" y="111" fill="#000000" font-size="5px" font-weight="bold" font-family="'Helvetica Neue', Helvetica, Arial-Unicode, Arial, Sans-serif">Created by Adi Kurniawan</text><text x="0" y="116" fill="#000000" font-size="5px" font-weight="bold" font-family="'Helvetica Neue', Helvetica, Arial-Unicode, Arial, Sans-serif">from the Noun Project</text></svg>